<svg width="144" height="124" viewBox="0 0 144 124" fill="none" xmlns="http://www.w3.org/2000/svg">
<path d="M51.4286 21.1429V10.8571H92.5714V21.1429H51.4286ZM144 72.5714H90V85.4286C90 88.2411 87.6696 90.5714 84.8571 90.5714H59.1429C56.3304 90.5714 54 88.2411 54 85.4286V72.5714H0V111.143C0 118.214 5.78571 124 12.8571 124H131.143C138.214 124 144 118.214 144 111.143V72.5714ZM82.2857 72.5714H61.7143V82.8571H82.2857V72.5714ZM144 34C144 26.9286 138.214 21.1429 131.143 21.1429H102.857V8.28571C102.857 4.02678 99.4018 0.571419 95.1429 0.571419H48.8571C44.5982 0.571419 41.1429 4.02678 41.1429 8.28571V21.1429H12.8571C5.78571 21.1429 0 26.9286 0 34V64.8571H144V34Z" fill="#FCEE71"/>
</svg>
