<svg width="200" height="183" viewBox="0 0 200 183" fill="none" xmlns="http://www.w3.org/2000/svg">
<path d="M134.388 37.0424C144.619 37.0424 152.91 28.7514 152.91 18.5212C152.91 8.29054 144.619 0 134.388 0C124.157 0 115.867 8.29054 115.867 18.5212C115.867 28.7514 124.157 37.0424 134.388 37.0424Z" fill="#FCEE71"/>
<path d="M49.5463 37.0424C59.777 37.0424 68.0671 28.7514 68.0671 18.5212C68.0671 8.29054 59.777 0 49.5463 0C39.3148 0 31.0247 8.29054 31.0247 18.5212C31.0247 28.7514 39.3148 37.0424 49.5463 37.0424Z" fill="#FCEE71"/>
<path d="M191.759 96.7734C192.344 94.1955 191.473 91.3932 189.269 89.6316L172.5 76.2257L156.982 38.5059C156.034 36.2013 154.015 34.668 151.738 34.2305C147.451 38.9612 141.261 41.938 134.388 41.938C127.516 41.938 121.326 38.9612 117.038 34.2305C114.76 34.6675 112.74 36.2008 111.791 38.5059L91.9657 86.6981L72.1399 38.5059C71.1919 36.2013 69.173 34.6675 66.896 34.2305C62.6085 38.9617 56.4183 41.938 49.5458 41.938C42.6733 41.938 36.4831 38.9612 32.1952 34.2305C29.9172 34.6675 27.897 36.2008 26.9485 38.5059L0.537378 102.706C-0.958987 106.344 0.776832 110.506 4.41404 112.001C5.30065 112.366 6.21796 112.539 7.12103 112.539C9.92149 112.539 12.5777 110.875 13.7096 108.125L27.0923 75.5937V84.6035L13.8071 126.108C11.5727 133.089 16.7802 140.223 24.1089 140.223H27.0919V173.155C27.0919 178.444 31.4741 182.709 36.8053 182.52C41.8833 182.339 45.8343 178.012 45.8343 172.93V140.223H53.2542V173.155C53.2542 178.444 57.6356 182.709 62.9668 182.52C68.0452 182.34 71.9966 178.011 71.9966 172.93V140.223H74.9796C82.3087 140.223 87.5162 133.089 85.2814 126.108L71.9962 84.6035V75.5933L82.7057 101.627C84.2502 105.382 87.9088 107.833 91.9688 107.833C96.0297 107.833 99.6887 105.381 101.233 101.625L111.933 75.5937V173.155C111.933 178.444 116.315 182.71 121.647 182.52C126.725 182.34 130.676 178.012 130.676 172.93V122.358C130.676 120.382 132.167 118.657 134.139 118.529C136.3 118.389 138.096 120.1 138.096 122.231V173.156C138.096 178.445 142.478 182.711 147.809 182.521C152.887 182.34 156.838 178.012 156.838 172.931V75.5942L160.028 83.3471C160.487 84.4642 161.224 85.4461 162.167 86.2005L179.106 99.7421C176.925 101.949 175.576 104.979 175.576 108.319V178.828C175.576 180.641 176.973 182.221 178.785 182.275C180.659 182.332 182.197 180.828 182.197 178.966V108.483C182.197 105.574 184.352 103.026 187.249 102.754C190.573 102.44 193.379 105.058 193.379 108.319V116.641C193.379 118.453 194.776 120.034 196.588 120.088C198.462 120.144 200 118.641 200 116.779V108.319C200.001 102.975 196.549 98.4251 191.759 96.7734Z" fill="#FCEE71"/>
</svg>
