<svg width="176" height="145" viewBox="0 0 176 145" fill="none" xmlns="http://www.w3.org/2000/svg">
<path d="M139.256 36.5714L170.113 93.1429H108.398L139.256 36.5714ZM36.3984 36.5714L67.2556 93.1429H5.54129L36.3984 36.5714ZM102.372 21.1429H141.827C143.273 21.1429 144.398 20.0179 144.398 18.5714V13.4286C144.398 11.9821 143.273 10.8571 141.827 10.8571H102.372C100.202 4.83035 94.577 0.571419 87.827 0.571419C81.077 0.571419 75.452 4.83035 73.2824 10.8571H33.827C32.3806 10.8571 31.2556 11.9821 31.2556 13.4286V18.5714C31.2556 20.0179 32.3806 21.1429 33.827 21.1429H73.2824C74.8092 25.4821 78.3449 29.0179 82.6842 30.5446V134.286H33.827C32.3806 134.286 31.2556 135.411 31.2556 136.857V142C31.2556 143.446 32.3806 144.571 33.827 144.571H141.827C143.273 144.571 144.398 143.446 144.398 142V136.857C144.398 135.411 143.273 134.286 141.827 134.286H92.9699V30.5446C97.3092 29.0179 100.845 25.4821 102.372 21.1429ZM87.827 22.4286C84.2913 22.4286 81.3984 19.5357 81.3984 16C81.3984 12.4643 84.2913 9.57143 87.827 9.57143C91.3627 9.57143 94.2556 12.4643 94.2556 16C94.2556 19.5357 91.3627 22.4286 87.827 22.4286ZM175.256 93.1429C175.256 90.0089 147.211 40.3482 143.756 34.0804C142.872 32.4732 141.104 31.4286 139.256 31.4286C137.407 31.4286 135.64 32.4732 134.756 34.0804C131.3 40.3482 103.256 90.0089 103.256 93.1429C103.256 109.696 126.157 116.286 139.256 116.286C152.354 116.286 175.256 109.696 175.256 93.1429ZM72.3984 93.1429C72.3984 90.0089 44.3538 40.3482 40.8984 34.0804C40.0145 32.4732 38.2467 31.4286 36.3984 31.4286C34.5502 31.4286 32.7824 32.4732 31.8984 34.0804C28.4431 40.3482 0.398438 90.0089 0.398438 93.1429C0.398438 109.696 23.3002 116.286 36.3984 116.286C49.4967 116.286 72.3984 109.696 72.3984 93.1429Z" fill="#FCEE71"/>
</svg>
