<svg width="134" height="114" viewBox="0 0 134 114" fill="none" xmlns="http://www.w3.org/2000/svg">
<path d="M51.5614 103C51.5614 97.375 46.9007 92.7143 41.2757 92.7143C35.6507 92.7143 30.99 97.375 30.99 103C30.99 108.625 35.6507 113.286 41.2757 113.286C46.9007 113.286 51.5614 108.625 51.5614 103ZM123.561 103C123.561 97.375 118.901 92.7143 113.276 92.7143C107.651 92.7143 102.99 97.375 102.99 103C102.99 108.625 107.651 113.286 113.276 113.286C118.901 113.286 123.561 108.625 123.561 103ZM133.847 15.5714C133.847 12.7589 131.517 10.4286 128.704 10.4286H32.1953C31.3917 6.57143 31.231 0.142855 25.8471 0.142855H5.27567C2.46317 0.142855 0.132812 2.47321 0.132812 5.28571C0.132812 8.09821 2.46317 10.4286 5.27567 10.4286H21.6685L35.8917 76.5625C34.606 79.0536 30.99 85.0804 30.99 87.5714C30.99 90.3839 33.3203 92.7143 36.1328 92.7143H118.419C121.231 92.7143 123.561 90.3839 123.561 87.5714C123.561 84.7589 121.231 82.4286 118.419 82.4286H44.49C45.2935 80.8214 46.4185 79.1339 46.4185 77.2857C46.4185 75.3571 45.7757 73.5089 45.3739 71.6607L129.267 61.8571C131.838 61.5357 133.847 59.2857 133.847 56.7143V15.5714Z" fill="#FCEE71"/>
</svg>
